<svg width="180" height="36" viewBox="0 0 180 36" fill="none" xmlns="http://www.w3.org/2000/svg">
<path d="M71.2188 19.6094C71.2188 26.2972 65.7972 31.7188 59.1094 31.7188C52.4215 31.7188 47 26.2972 47 19.6094C47 12.9215 52.4215 7.5 59.1094 7.5C65.7972 7.5 71.2188 12.9215 71.2188 19.6094ZM68.875 19.6094L68.8749 19.5956L67.6022 20.706L64.5417 17.8496L65.3451 13.7307L67.0201 13.8807C65.8048 12.21 64.0902 10.9466 62.1026 10.3093L62.7692 11.8688L59.1094 13.8965L55.4496 11.8689L56.1161 10.3094C54.1322 10.9455 52.4159 12.2073 51.1987 13.8807L52.8864 13.7307L53.6771 17.8496L50.6166 20.706L49.3439 19.5956L49.3438 19.6094C49.3438 21.7097 50.0028 23.7086 51.2223 25.3707L51.5985 23.7155L55.7556 24.2256L57.5281 28.0257L56.0681 28.8942C58.0311 29.5349 60.1838 29.5362 62.1507 28.8942L60.6906 28.0257L62.4631 24.2256L66.6203 23.7155L66.9964 25.3707C68.216 23.7086 68.875 21.7097 68.875 19.6094ZM56.7606 23.0064L55.301 18.5478L59.1094 15.7877L62.9178 18.5478L61.4714 23.0064H56.7606Z" fill="#1F2432"/>
<path d="M0.96 26.436C1.504 25.62 1.952 24.86 2.304 24.156C2.672 23.452 3.024 22.636 3.36 21.708C4.496 22.364 5.816 22.876 7.32 23.244C8.824 23.612 10.224 23.796 11.52 23.796C12.848 23.796 13.784 23.684 14.328 23.46C14.872 23.22 15.144 22.964 15.144 22.692C15.144 21.716 13.656 21.228 10.68 21.228C7.416 21.228 5.048 20.892 3.576 20.22C2.104 19.532 1.368 18.428 1.368 16.908C1.368 14.748 2.264 13.156 4.056 12.132C5.848 11.108 8.176 10.596 11.04 10.596C12.704 10.596 14.408 10.812 16.152 11.244C17.912 11.66 19.496 12.236 20.904 12.972C20.44 14.028 19.952 15.316 19.44 16.836C19.344 17.156 19.264 17.396 19.2 17.556C18.384 16.9 17.152 16.356 15.504 15.924C13.856 15.476 12.4 15.252 11.136 15.252C9.616 15.252 8.592 15.356 8.064 15.564C7.536 15.756 7.272 16.044 7.272 16.428C7.272 16.812 7.632 17.124 8.352 17.364C9.088 17.588 10.144 17.7 11.52 17.7C14.912 17.7 17.376 18.092 18.912 18.876C20.448 19.644 21.216 20.828 21.216 22.428C21.216 24.668 20.4 26.284 18.768 27.276C17.136 28.252 14.664 28.74 11.352 28.74C9.576 28.74 7.768 28.548 5.928 28.164C4.088 27.764 2.432 27.188 0.96 26.436ZM33.6919 28.74C30.0759 28.74 27.4119 27.972 25.6999 26.436C23.9879 24.9 23.1319 22.708 23.1319 19.86C23.1319 16.996 23.9879 14.732 25.6999 13.068C27.4119 11.404 30.0759 10.572 33.6919 10.572C38.7479 10.572 42.1319 12.308 43.8439 15.78C42.4039 16.276 40.7159 17.02 38.7799 18.012C38.3159 17.116 37.5799 16.452 36.5719 16.02C35.5799 15.588 34.5639 15.372 33.5239 15.372C31.9879 15.372 30.8439 15.78 30.0919 16.596C29.3399 17.396 28.9639 18.388 28.9639 19.572C28.9639 20.852 29.3639 21.9 30.1639 22.716C30.9799 23.516 32.2199 23.916 33.8839 23.916C35.2119 23.916 36.2679 23.7 37.0519 23.268C37.8359 22.82 38.4119 22.116 38.7799 21.156C40.0919 21.86 41.7719 22.652 43.8199 23.532C43.0199 25.468 41.6839 26.82 39.8119 27.588C37.9399 28.356 35.8999 28.74 33.6919 28.74ZM93.8726 16.884C93.8726 18.276 93.5286 19.452 92.8406 20.412C92.1686 21.372 91.0086 22.068 89.3606 22.5C89.5526 22.756 89.6886 22.956 89.7686 23.1L93.6566 28.5H87.1286C86.4246 27.188 85.3126 25.332 83.7926 22.932H80.2646V28.5H74.6006C74.7286 25.396 74.7926 22.492 74.7926 19.788C74.7926 17.084 74.7286 14.18 74.6006 11.076H80.2646V11.1H85.1846C88.4166 11.1 90.6726 11.62 91.9526 12.66C93.2326 13.7 93.8726 15.108 93.8726 16.884ZM80.2646 15.708V18.444H83.5046C84.8646 18.444 85.8886 18.404 86.5766 18.324C87.2806 18.228 87.7686 18.084 88.0406 17.892C88.3126 17.7 88.4486 17.42 88.4486 17.052C88.4486 16.7 88.3206 16.428 88.0646 16.236C87.8086 16.044 87.3286 15.908 86.6246 15.828C85.9206 15.748 84.8806 15.708 83.5046 15.708H80.2646ZM101.452 24.108C107.532 24.076 111.94 23.988 114.676 23.844C114.564 24.5 114.492 25.18 114.46 25.884C114.444 26.572 114.436 27.444 114.436 28.5H95.7881C95.9161 25.396 95.9801 22.492 95.9801 19.788C95.9801 17.084 95.9161 14.18 95.7881 11.076H114.436V15.42H101.452V17.724C102.22 17.74 103.356 17.748 104.86 17.748C107.404 17.748 110.036 17.7 112.756 17.604V21.732C110.036 21.636 107.404 21.588 104.86 21.588C103.356 21.588 102.22 21.596 101.452 21.612V24.108ZM130.315 28.5C130.011 27.588 129.603 26.444 129.091 25.068H121.435L120.235 28.5H114.211L120.931 11.076H129.763L136.531 28.5H130.315ZM127.723 21.324C127.115 19.644 126.491 17.964 125.851 16.284L125.275 14.724C124.715 16.18 123.891 18.38 122.803 21.324H127.723ZM148.708 11.1C151.892 11.1 154.108 11.668 155.356 12.804C156.604 13.924 157.228 15.508 157.228 17.556C157.228 18.964 156.98 20.164 156.484 21.156C155.988 22.132 155.116 22.9 153.868 23.46C152.62 24.004 150.9 24.276 148.708 24.276H143.716V28.5H137.812C137.94 25.396 138.004 22.492 138.004 19.788C138.004 17.084 137.94 14.18 137.812 11.076H143.716V11.1H148.708ZM147.028 19.644C148.356 19.644 149.348 19.596 150.004 19.5C150.676 19.388 151.14 19.196 151.396 18.924C151.668 18.652 151.804 18.252 151.804 17.724C151.804 17.196 151.676 16.804 151.42 16.548C151.18 16.276 150.724 16.092 150.052 15.996C149.396 15.9 148.388 15.852 147.028 15.852H143.716V19.644H147.028ZM170.036 11.1C173.22 11.1 175.436 11.668 176.684 12.804C177.932 13.924 178.556 15.508 178.556 17.556C178.556 18.964 178.308 20.164 177.812 21.156C177.316 22.132 176.444 22.9 175.196 23.46C173.948 24.004 172.228 24.276 170.036 24.276H165.044V28.5H159.14C159.268 25.396 159.332 22.492 159.332 19.788C159.332 17.084 159.268 14.18 159.14 11.076H165.044V11.1H170.036ZM168.356 19.644C169.684 19.644 170.676 19.596 171.332 19.5C172.004 19.388 172.468 19.196 172.724 18.924C172.996 18.652 173.132 18.252 173.132 17.724C173.132 17.196 173.004 16.804 172.748 16.548C172.508 16.276 172.052 16.092 171.38 15.996C170.724 15.9 169.716 15.852 168.356 15.852H165.044V19.644H168.356Z" fill="#1F2432"/>
</svg>
