<svg width="25" height="25" viewBox="0 0 25 25" fill="none" xmlns="http://www.w3.org/2000/svg">
<path d="M24.2188 12.6094C24.2188 19.2972 18.7972 24.7188 12.1094 24.7188C5.42153 24.7188 0 19.2972 0 12.6094C0 5.92153 5.42153 0.5 12.1094 0.5C18.7972 0.5 24.2188 5.92153 24.2188 12.6094ZM21.875 12.6094L21.8749 12.5956L20.6022 13.706L17.5417 10.8496L18.3451 6.73066L20.0201 6.88066C18.8048 5.20996 17.0902 3.94663 15.1026 3.30933L15.7692 4.86885L12.1094 6.89648L8.44956 4.8689L9.11611 3.30938C7.13218 3.94551 5.41592 5.20732 4.19868 6.88071L5.88643 6.73066L6.67705 10.8496L3.6166 13.706L2.34395 12.5956L2.3438 12.6094C2.3438 14.7097 3.00283 16.7086 4.22231 18.3707L4.59849 16.7155L8.75562 17.2256L10.5281 21.0257L9.06807 21.8942C11.0311 22.5349 13.1838 22.5362 15.1507 21.8942L13.6906 21.0257L15.4631 17.2256L19.6203 16.7155L19.9964 18.3707C21.216 16.7086 21.875 14.7097 21.875 12.6094ZM9.76064 16.0064L8.30098 11.5478L12.1094 8.78769L15.9178 11.5478L14.4714 16.0064H9.76064Z" fill="#1F2432"/>
</svg>
